<?xml version="1.0" encoding="utf-8"?>
<!-- Generator: Adobe Illustrator 24.1.0, SVG Export Plug-In . SVG Version: 6.00 Build 0)  -->
<svg version="1.1" id="Capa_1" xmlns="http://www.w3.org/2000/svg" xmlns:xlink="http://www.w3.org/1999/xlink" x="0px" y="0px"
	 viewBox="0 0 1496.7 1345.2" style="enable-background:new 0 0 1496.7 1345.2;" xml:space="preserve">
<style type="text/css">
	.st0{display:none;}
	.st1{display:inline;fill:#E0E0E0;}
	.st2{display:inline;}
	.st3{fill:#1C80D3;}
	.st4{fill:none;}
	.st5{fill:#E0E0E0;}
	.st6{display:none;fill:#1C80D3;}
	.st7{fill:#E2E2E2;}
</style>
<g class="st0">
	<path class="st1" d="M1678.4,930.6c-30.3,0-58.7-5.7-84.8-17.4c-26.2-11.4-49.1-27.4-68.7-47.4c-19.6-20-35-43.3-46.2-69.7
		c-11.2-26.4-17-54.6-17-84.4c0-29.8,5.7-57.8,17-84.4c11.2-26.4,26.8-49.7,46.2-69.7c19.6-20,42.5-35.8,68.7-47.4
		c26.2-11.4,54.6-17.4,84.8-17.4c27.4,0,54,5.1,79.3,15.1c25.3,10,48.9,24.7,70.3,43.9l-84.6,74.4c-20.4-14.5-41.9-21.9-64.4-21.9
		c-14.7,0-28.6,2.9-41.3,8.6c-12.7,5.7-23.5,13.5-32.7,23.5s-16.4,21.5-21.7,34.3c-5.3,12.9-8,26.6-8,40.7c0,14.5,2.7,28.2,8,41.3
		c5.3,12.9,12.5,24.3,21.7,34.1c9.2,9.8,20,17.6,32.5,23.5c12.5,5.9,26.2,8.8,40.9,8.8c17,0,32.7-3.9,47.2-11.7
		c14.5-7.8,27.4-18.8,38.2-32.9l87.3,71.3c-21.9,27-47.6,47.8-77.5,62.5C1744,923.2,1712.4,930.6,1678.4,930.6z"/>
	<path class="st1" d="M2137.7,917.9l-71.3-127.8h-69.3l0.6,127.8h-113V505h205.4c9.8,0,19.8,1.8,30,5.5c10.2,3.7,20,8.8,29.6,14.9
		c9.6,6.1,18.4,13.3,26.4,21.1c8.2,7.8,14.9,15.7,20.6,23.9c6.9,10.2,12.5,22.3,16.1,36c3.7,13.7,5.5,26.8,5.5,39
		c0,20.6-4.7,39.7-14.3,57.4c-9.6,17.8-22.7,32.7-39.7,44.8l96.1,170.3H2137.7z M2057.8,597h-64v88.9h64c6.3,0,12.3-1.2,18-3.5
		c5.7-2.2,10.6-5.5,14.7-9.6c4.3-4.1,7.6-8.8,10-14.1c2.5-5.3,3.7-11,3.7-17.4c0-6.3-1.2-12.3-3.7-17.4c-2.5-5.3-5.7-10-10-14.1
		s-9.2-7.2-14.7-9.6C2070.3,598,2064.1,597,2057.8,597z"/>
	<path class="st1" d="M2474.2,930.6c-30.3,0-58.7-5.7-85-17c-26.4-11.4-49.5-26.8-69.3-46.6c-19.8-19.6-35.4-42.9-46.8-69.5
		s-17.2-55-17.2-85.2c0-30.3,5.7-58.5,17.2-85.2c11.4-26.6,27-49.7,46.8-69.5c19.6-19.6,42.7-35.4,69.3-46.8
		c26.4-11.4,54.8-17.4,85-17.4c29.8,0,58.3,5.7,84.8,17.4c26.6,11.4,49.7,27.2,69.5,46.8c19.6,19.6,35.4,42.9,46.8,69.5
		s17.2,55,17.2,85.2c0,30.3-5.7,58.5-17.2,85.2c-11.4,26.6-27,49.7-46.8,69.5c-19.8,19.6-42.9,35.2-69.5,46.6
		C2532.4,924.9,2504.2,930.6,2474.2,930.6z M2474.2,599.1c-15.5,0-29.8,3.1-43.1,9.4c-13.3,6.1-24.5,14.5-34.1,24.7
		s-17,22.3-22.5,36c-5.5,13.7-8.2,28.2-8.2,43.3c0,14.9,2.7,29.2,8.2,43.1c5.5,13.9,12.9,26,22.5,36.2s20.8,18.6,34.1,24.7
		c13.3,6.1,27.6,9.4,43.1,9.4c15.5,0,29.8-3.1,43.1-9.4c13.3-6.1,24.5-14.5,34.1-24.7c9.6-10.2,17-22.3,22.5-36.2
		c5.5-13.9,8.2-28.2,8.2-43.1c0-15.3-2.7-29.6-8.2-43.3c-5.5-13.7-12.9-25.6-22.5-36c-9.6-10.2-20.8-18.6-34.1-24.7
		C2504,602.1,2489.7,599.1,2474.2,599.1z"/>
	<path class="st1" d="M2987.2,917.3L2845.2,697v220.3h-109.4V504.8h108.9l142.7,222.4V504.8h110v412.5H2987.2z"/>
	<path class="st1" d="M3355.5,930.6c-30.3,0-58.7-5.7-85-17c-26.4-11.4-49.5-26.8-69.3-46.6c-19.8-19.6-35.4-42.9-46.8-69.5
		s-17.2-55-17.2-85.2c0-30.3,5.7-58.5,17.2-85.2c11.4-26.6,27-49.7,46.8-69.5c19.8-19.6,42.7-35.4,69.3-46.8
		c26.4-11.4,54.8-17.4,85-17.4c29.8,0,58.3,5.7,84.8,17.4c26.6,11.4,49.7,27.2,69.5,46.8c19.6,19.6,35.4,42.9,46.8,69.5
		s17.2,55,17.2,85.2c0,30.3-5.7,58.5-17.2,85.2c-11.4,26.6-27,49.7-46.8,69.5c-19.8,19.6-42.9,35.2-69.5,46.6
		C3413.8,924.9,3385.6,930.6,3355.5,930.6z M3355.5,599.1c-15.5,0-29.8,3.1-43.1,9.4c-13.3,6.1-24.5,14.5-34.1,24.7
		s-17,22.3-22.5,36c-5.5,13.7-8.2,28.2-8.2,43.3c0,14.9,2.7,29.2,8.2,43.1c5.5,13.9,12.9,26,22.5,36.2s20.8,18.6,34.1,24.7
		c13.3,6.1,27.6,9.4,43.1,9.4c15.5,0,29.8-3.1,43.1-9.4c13.3-6.1,24.5-14.5,34.1-24.7c9.6-10.2,17-22.3,22.5-36.2
		c5.5-13.9,8.2-28.2,8.2-43.1c0-15.3-2.7-29.6-8.2-43.3c-5.5-13.7-12.9-25.6-22.5-36c-9.6-10.2-20.8-18.6-34.1-24.7
		C3385.4,602.1,3371.1,599.1,3355.5,599.1z"/>
	<path class="st1" d="M3811.6,917.9h-183.3V505h183.3c28.6,0,55.4,5.3,80.3,16.1c24.9,10.8,46.8,25.6,65.6,44.2
		c18.6,18.6,33.3,40.5,44.2,65.8c10.8,25.1,16.1,51.9,16.1,80.3c0,28.4-5.3,55.2-16.1,80.3s-25.6,47-44.2,65.8
		c-18.6,18.6-40.5,33.3-65.6,44.2C3867,912.4,3840.2,917.9,3811.6,917.9z M3798.9,605.4h-63v211.8h63c14.7,0,28.6-2.7,41.5-8.2
		c12.9-5.5,24.1-13.1,33.5-22.7c9.6-9.6,17-20.8,22.5-33.7s8.2-26.8,8.2-41.3s-2.7-28.2-8.2-41.3c-5.5-12.9-12.9-24.1-22.5-33.7
		c-9.6-9.6-20.6-17.2-33.5-22.7C3827.5,608.3,3813.8,605.4,3798.9,605.4z"/>
	<polygon class="st1" points="4401.9,505.4 4348.9,605.4 4348.1,607 4298.5,700.4 4236.9,577 4272.9,505.4 	"/>
	<polygon class="st1" points="4262.9,767.7 4258.6,775.9 4205.5,883.8 4205.5,883.8 4188.7,917.9 4072,917.9 4141.7,776.1 
		4141.9,775.9 4074.2,648.1 4073.2,646.3 3999,505.4 4127.6,505.4 4200.5,649.1 4201.2,647.7 	"/>
	<polygon class="st1" points="4074.2,648.1 4141.9,775.9 4141.7,776.1 	"/>
	<polygon class="st1" points="4127.6,504.8 4201.2,647.7 4200.5,649.1 4127.6,505.4 3999,505.4 3998.6,504.8 	"/>
</g>
<g id="Capa_2_1_" class="st0">
	<g class="st2">
		<path class="st3" d="M1050.9,914c19,0,30.7,2.4,47.4,11.6c0,0,0,28.4,0,50.1c-10.8-9.1-22.7-16.1-45-16.1
			c-30.5,0-47.4,22.9-47.4,54.1c0,29.6,21.3,49.3,49.7,49.3c17.4,0,30.3-7,42.2-15.2c0,0,0,39.2,0,48.4
			c-14.8,6.7-26.5,12.3-45.3,12.3c-51.8,0-94-38.5-94-95.3C958.5,954.2,998.1,914,1050.9,914z"/>
		<path class="st3" d="M1178.5,1038.7v65h-46.9V919.4c0,0,61.9,0,71.5,0c31.9,0,61.4,18.5,61.4,57.8c0,25.3-10.8,42.4-31,50.3
			c4.7,7,48.1,76.3,48.1,76.3h-56.1c0,0-32.6-56.6-37.8-65h-9.2V1038.7z M1177.6,1002.3h15c12.9,0,24.2-5.5,24.2-23.1
			c0-15.6-8.2-23.1-23.7-23.1h-15.5V1002.3z"/>
		<path class="st3" d="M1392.2,912.6c56.3,0,99,42.6,99,97c0,59.7-44.1,100.8-99.2,100.8c-58.2,0-99-42.4-99-99.1
			C1292.9,952.3,1337.5,912.6,1392.2,912.6z M1340.3,1012c0,31.3,20.9,53.4,51.4,53.4s52.1-22.6,52.1-54.9c0-29.6-22-52.7-51.8-52.7
			C1361.9,957.8,1340.3,980.7,1340.3,1012z"/>
		<path class="st3" d="M1568.5,1103.7h-46.9V919.4h46.9l84,109.3V919.4h45.5v184.3h-46.9l-82.6-110V1103.7z"/>
		<path class="st3" d="M1827.7,912.6c56.3,0,99,42.6,99,97c0,59.7-44.1,100.8-99.2,100.8c-58.2,0-99-42.4-99-99.1
			C1728.5,952.3,1773,912.6,1827.7,912.6z M1775.8,1012c0,31.3,20.9,53.4,51.4,53.4s52.1-22.6,52.1-54.9c0-29.6-22-52.7-51.8-52.7
			C1797.4,957.8,1775.8,980.7,1775.8,1012z"/>
		<path class="st3" d="M1957.1,919.3c0,0,46.7,0,75,0c48.3,0,85.4,36.8,85.4,90c0,53.9-34.9,94.3-84.9,94.3c-28.1,0-75.5,0-75.5,0
			V919.3z M2004.8,1062.3h20.6c27.7,0,44.8-22.6,44.8-53.7c0-28.2-18.3-49.1-43.4-49.1h-22V1062.3z"/>
		<path class="st3" d="M2189.8,919.3l33.8,56.8l33.3-56.8h56.3l-66.6,102.5v81.8h-46v-80.9l-69-103.5L2189.8,919.3L2189.8,919.3z"/>
	</g>
	<g class="st2">
		<polygon class="st4" points="2665.5,1168.9 2662.4,1168.9 2662.4,1168.9 		"/>
	</g>
</g>
<path class="st5" d="M746,149.3L239.8,410.9v523.4L746,1196l506.2-261.7V410.9L746,149.3z M326,537.3c0.2-29.6,0.3-59.2,0-88.8
	c-0.1-5.1,1.8-7.2,6.3-8.9c119.8-45.5,239.7-91.2,359.5-137c5.4-2,6.4-1.2,6.4,4.5c-0.3,28-0.3,56,0,83.9c0.1,5.1-1.7,7-6.3,8.7
	c-81.6,29.7-163.2,59.6-244.7,89.6c-2.3,0.9-4.9,1.2-7.5,4c31.2,11.4,61.8,22.6,92.4,33.7c53.4,19.5,106.8,39,160.3,58.3
	c4.5,1.6,5.9,3.7,5.8,8.5c-0.2,28.2-0.3,56.4,0,84.6c0.1,6-1.5,6.4-6.6,4.4c-119.8-45.7-239.8-91.4-359.7-136.9
	C327.5,544.2,326,542,326,537.3z M515.9,1000.6c0,5.2-1,7.2-6.8,7.1c-25-0.3-50-0.3-75,0c-5,0.1-6.8-0.9-6.8-6.4
	c0.2-55.3,0.2-110.6,0-165.9c0-5.4,1.7-7.3,6.8-6.4c6.6,1.2,8.5-1.4,8.4-8.2c-0.3-62.7-0.1-125.4-0.1-188.1c0-8.3,0-8.3,7.8-5.2
	c14.4,5.8,28.6,12,43.1,17.4c5.6,2.1,7,5.1,7,10.7c-0.2,27.4-0.1,55-0.1,82.5c0,28,0.1,56-0.1,84c-0.1,5.6,1.7,7.6,7,6.7
	c6.9-1.2,8.9,1.3,8.9,8.5C515.6,891.8,515.7,946.2,515.9,1000.6z M1061.3,728.7c0,33.1-0.1,66.1,0.1,99.2c0,4.7-1.4,6.8-5.8,8.6
	c-98.1,39.1-196.2,78.3-294.2,117.6c-3.8,1.5-6.8,1.3-10.5-0.1c-63-24.1-126-48.2-189.1-72.1c-4.5-1.7-6.4-3.6-6.4-8.7
	c0.3-27,0.3-54.1,0-81.2c-0.1-6.4,1.8-6.6,7-4.5c62,23.8,124.1,47.3,186,71.1c5.1,2,9.4,2,14.5-0.1c67.8-27.3,135.6-54.4,203.5-81.4
	c5.1-2,6.8-4.5,6.8-10c-0.3-35.1-0.1-70.3-0.2-105.5c0-4.5,0.9-7,5.6-8.7c25.4-9.3,50.7-19,75.9-28.9c5.5-2.2,7-1.4,7,4.7
	C1061.1,662.1,1061.3,695.4,1061.3,728.7z M1166.1,537.9c0,4.5-1.6,6.4-5.6,7.9c-120.2,45.7-240.4,91.4-360.5,137.3
	c-4.6,1.8-6,1.2-6-4c0.2-28.6,0.3-57.4-0.1-86c-0.1-5.3,2.8-6.4,6.7-7.9c81.3-29.6,162.5-59.2,243.7-88.9c2.5-1,5.4-1.4,7.5-3.5
	c-1.3-2.4-3.9-2.4-5.9-3.2c-81.8-30-163.6-60-245.5-89.8c-5-1.8-6.5-4-6.4-9.3c0.3-27.8,0.2-55.6,0.1-83.3c0-5,0.2-7,6.2-4.7
	c120.3,46,240.6,91.8,360.9,137.5c4.1,1.6,5,3.7,5,7.7C1165.9,477.8,1165.9,507.8,1166.1,537.9z"/>
<path class="st6" d="M516,837.4c-0.3,54.4-0.3,108.7-0.1,163.1c0,5.2-1,7.2-6.8,7.1c-25-0.3-50-0.3-75,0c-5,0.1-6.8-0.9-6.8-6.4
	c0.2-55.3,0.2-110.6,0-165.9c0-5.4,1.7-7.3,6.8-6.4c6.6,1.2,8.5-1.4,8.4-8.2c-0.3-62.7-0.1-125.4-0.1-188.1c0-8.3,0-8.3,7.8-5.2
	c14.4,5.8,28.6,12,43.1,17.4c5.6,2.1,7,5.1,7,10.7c-0.2,27.4-0.1,55-0.1,82.5c0,28,0.1,56-0.1,84c-0.1,5.6,1.7,7.6,7,6.7
	C514,827.7,516.1,830.2,516,837.4z"/>
<path class="st6" d="M691.6,682.8c-119.8-45.7-239.8-91.4-359.7-136.9c-4.4-1.7-5.9-3.9-5.8-8.6c0.2-29.6,0.3-59.2,0-88.8
	c-0.1-5.1,1.8-7.2,6.3-8.9c119.8-45.5,239.7-91.2,359.5-137c5.4-2,6.4-1.2,6.4,4.5c-0.3,28-0.3,56,0,83.9c0.1,5.1-1.7,7-6.3,8.7
	c-81.6,29.7-163.2,59.6-244.7,89.6c-2.3,0.9-4.9,1.2-7.5,4c31.2,11.4,61.8,22.6,92.4,33.7c53.4,19.5,106.8,39,160.3,58.3
	c4.5,1.6,5.9,3.7,5.8,8.5c-0.2,28.2-0.3,56.4,0,84.6C698.2,684.5,696.7,684.8,691.6,682.8z"/>
<path class="st6" d="M1061.5,628.8c-0.3,33.3-0.2,66.6-0.2,99.9c0,33.1-0.1,66.1,0.1,99.2c0,4.7-1.4,6.8-5.8,8.6
	c-98.1,39.1-196.2,78.3-294.2,117.6c-3.8,1.5-6.8,1.3-10.5-0.1c-63-24.1-126-48.2-189.1-72.1c-4.5-1.7-6.4-3.6-6.4-8.7
	c0.3-27,0.3-54.1,0-81.2c-0.1-6.4,1.8-6.6,7-4.5c62,23.8,124.1,47.3,186,71.1c5.1,2,9.4,2,14.5-0.1c67.8-27.3,135.6-54.4,203.5-81.4
	c5.1-2,6.8-4.5,6.8-10c-0.3-35.1-0.1-70.3-0.2-105.5c0-4.5,0.9-7,5.6-8.7c25.4-9.3,50.7-19,75.9-28.9
	C1060,621.9,1061.5,622.7,1061.5,628.8z"/>
<path class="st6" d="M1166.1,537.9c0,4.5-1.6,6.4-5.6,7.9c-120.2,45.7-240.4,91.4-360.5,137.3c-4.6,1.8-6,1.2-6-4
	c0.2-28.6,0.3-57.4-0.1-86c-0.1-5.3,2.8-6.4,6.7-7.9c81.3-29.6,162.5-59.2,243.7-88.9c2.5-1,5.4-1.4,7.5-3.5
	c-1.3-2.4-3.9-2.4-5.9-3.2c-81.8-30-163.6-60-245.5-89.8c-5-1.8-6.5-4-6.4-9.3c0.3-27.8,0.2-55.6,0.1-83.3c0-5,0.2-7,6.2-4.7
	c120.3,46,240.6,91.8,360.9,137.5c4.1,1.6,5,3.7,5,7.7C1165.9,477.8,1165.9,507.8,1166.1,537.9z"/>
<g id="Capa_1_1_" class="st0">
	<g class="st2">
		<path class="st7" d="M1166.1,537.9c0,4.5-1.6,6.4-5.6,7.9c-120.2,45.7-240.4,91.4-360.5,137.3c-4.6,1.8-6,1.2-6-4
			c0.2-28.6,0.3-57.4-0.1-86c-0.1-5.3,2.8-6.4,6.7-7.9c81.3-29.6,162.5-59.2,243.7-88.9c2.5-1,5.4-1.4,7.5-3.5
			c-1.3-2.4-3.9-2.4-5.9-3.2c-81.8-30-163.6-60-245.5-89.8c-5-1.8-6.5-4-6.4-9.3c0.3-27.8,0.2-55.6,0.1-83.3c0-5,0.2-7,6.2-4.7
			c120.3,46,240.6,91.8,360.9,137.5c4.1,1.6,5,3.7,5,7.7C1165.9,477.8,1165.9,507.8,1166.1,537.9z"/>
		<path class="st7" d="M439.6,493.3c31.2,11.4,61.8,22.6,92.4,33.7c53.4,19.5,106.8,39,160.3,58.3c4.5,1.6,5.9,3.7,5.8,8.5
			c-0.2,28.2-0.3,56.4,0,84.6c0.1,6-1.5,6.4-6.6,4.4c-119.8-45.7-239.8-91.4-359.7-136.9c-4.4-1.7-5.9-3.9-5.8-8.6
			c0.2-29.6,0.3-59.2,0-88.8c-0.1-5.1,1.8-7.2,6.3-8.9c119.8-45.5,239.7-91.2,359.5-137c5.4-2,6.4-1.2,6.4,4.5
			c-0.3,28-0.3,56,0,83.9c0.1,5.1-1.7,7-6.3,8.7c-81.6,29.7-163.2,59.6-244.7,89.6C444.9,490.2,442.2,490.4,439.6,493.3z"/>
		<path class="st7" d="M1061.4,827.9c0,4.7-1.4,6.8-5.8,8.6c-98.1,39.1-196.2,78.3-294.2,117.6c-3.8,1.5-6.8,1.3-10.5-0.1
			c-63-24.1-126-48.2-189.1-72.1c-4.5-1.7-6.4-3.6-6.4-8.7c0.3-27,0.3-54.1,0-81.2c-0.1-6.4,1.8-6.6,7-4.5
			c62,23.8,124.1,47.3,186,71.1c5.1,2,9.4,2,14.5-0.1c67.8-27.3,135.6-54.4,203.5-81.4c5.1-2,6.8-4.5,6.8-10
			c-0.3-35.1-0.1-70.3-0.2-105.5c0-4.5,0.9-7,5.6-8.7c25.4-9.3,50.7-19,75.9-28.9c5.5-2.2,7-1.4,7,4.7c-0.3,33.3-0.2,66.6-0.2,99.9
			C1061.3,761.8,1061.1,794.8,1061.4,827.9z"/>
		<path class="st7" d="M515.9,1000.6c0,5.2-1,7.2-6.8,7.1c-25-0.3-50-0.3-75,0c-5,0.1-6.8-0.9-6.8-6.4c0.2-55.3,0.2-110.6,0-165.9
			c0-5.4,1.7-7.3,6.8-6.4c6.6,1.2,8.5-1.4,8.4-8.2c-0.3-62.7-0.1-125.4-0.1-188.1c0-8.3,0-8.3,7.8-5.2c14.4,5.8,28.6,12,43.1,17.4
			c5.6,2.1,7,5.1,7,10.7c-0.2,27.4-0.1,55-0.1,82.5c0,28,0.1,56-0.1,84c-0.1,5.6,1.7,7.6,7,6.7c6.9-1.2,8.9,1.3,8.9,8.5
			C515.6,891.8,515.7,946.2,515.9,1000.6z"/>
	</g>
</g>
</svg>
