<?xml version="1.0" encoding="utf-8"?>
<!-- Generator: Adobe Illustrator 24.1.0, SVG Export Plug-In . SVG Version: 6.00 Build 0)  -->
<svg version="1.1" id="Capa_1" xmlns="http://www.w3.org/2000/svg" xmlns:xlink="http://www.w3.org/1999/xlink" x="0px" y="0px"
	 viewBox="0 0 512 512" style="enable-background:new 0 0 512 512;" xml:space="preserve">
<style type="text/css">
	.st0{fill:#AFAFAF;}
</style>
<g>
	<path class="st0" d="M143.9,305.1v-85.2c0-6.1,0.9-12.1,2.5-17.9H88.9c-9.3,0-17.8,3.8-23.9,9.9s-9.9,14.6-9.9,23.9v67.8
		c0,8.3,3,15.8,8,21.8c2.6,3.1,5.7,5.7,9.3,7.7v98.5c0,7.2,5.8,13,13,13h80.1v-91.1C151.9,341.2,143.9,323.6,143.9,305.1z"/>
	<path class="st0" d="M125.6,186.6c28.2,0,51.1-22.9,51.1-51.1s-22.9-51.1-51.1-51.1s-51.1,22.9-51.1,51.1S97.4,186.6,125.6,186.6z"
		/>
	<path class="st0" d="M301.2,180.8h-92.1c-10.8,0-20.6,4.4-27.6,11.5c-7.1,7.1-11.5,16.9-11.5,27.7v85.2c0,9.6,3.5,18.4,9.3,25.2
		c3.4,4.1,7.7,7.4,12.4,9.8V466c0,7.2,5.8,13,13,13h100.9c7.2,0,13-5.8,13-13V340.1c4.8-2.4,9-5.7,12.4-9.8
		c5.8-6.8,9.3-15.6,9.3-25.2v-85.2c0-10.8-4.4-20.6-11.5-27.6C321.7,185.2,312,180.8,301.2,180.8z"/>
	<path class="st0" d="M255.1,154.7c33.6,0,60.9-27.3,60.9-60.9S288.7,33,255.1,33s-60.9,27.3-60.9,60.9S221.5,154.7,255.1,154.7z"/>
	<path class="st0" d="M446.9,212c-6.1-6.1-14.6-9.9-23.9-9.9h-59.2c1.6,5.7,2.5,11.7,2.5,17.9v85.2c0,18.5-8,36.1-21.7,48.4v91
		c0.5,0.1,1,0.1,1.6,0.1h80.3c7.2,0,13-5.8,13-13v-98.5c3.5-2,6.7-4.6,9.3-7.7c5-5.9,8-13.5,8-21.8v-67.8
		C456.9,226.5,453.1,218.1,446.9,212z"/>
	<path class="st0" d="M386.4,186.6c28.2,0,51.1-22.9,51.1-51.1s-22.9-51.1-51.1-51.1s-51.1,22.9-51.1,51.1S358.2,186.6,386.4,186.6z
		"/>
</g>
</svg>
