<?xml version="1.0" encoding="utf-8"?>
<!-- Generator: Adobe Illustrator 24.1.0, SVG Export Plug-In . SVG Version: 6.00 Build 0)  -->
<svg version="1.1" xmlns="http://www.w3.org/2000/svg" xmlns:xlink="http://www.w3.org/1999/xlink" x="0px" y="0px"
	 viewBox="0 0 1496.7 1496.7" style="enable-background:new 0 0 1496.7 1496.7;" xml:space="preserve">
<style type="text/css">
	.st0{display:none;}
	.st1{display:inline;fill:#E0E0E0;}
	.st2{display:inline;}
	.st3{fill:#1C80D3;}
	.st4{fill:none;}
	.st5{fill:#E2E2E2;}
	.st6{fill:#E5E5E5;}
	.st7{display:none;fill:#18257F;}
	.st8{fill:#1150BF;}
</style>
<g id="Capa_1" class="st0">
	<g>
		<path class="st1" d="M1678.4,1006.3c-30.3,0-58.7-5.7-84.8-17.4c-26.2-11.4-49.1-27.4-68.7-47.4s-35-43.3-46.2-69.7
			s-17-54.6-17-84.4c0-29.8,5.7-57.8,17-84.4c11.2-26.4,26.8-49.7,46.2-69.7c19.6-20,42.5-35.8,68.7-47.4
			c26.2-11.4,54.6-17.4,84.8-17.4c27.4,0,54,5.1,79.3,15.1s48.9,24.7,70.3,43.9l-84.6,74.4c-20.4-14.5-41.9-21.9-64.4-21.9
			c-14.7,0-28.6,2.9-41.3,8.6c-12.7,5.7-23.5,13.5-32.7,23.5s-16.4,21.5-21.7,34.3c-5.3,12.9-8,26.6-8,40.7c0,14.5,2.7,28.2,8,41.3
			c5.3,12.9,12.5,24.3,21.7,34.1s20,17.6,32.5,23.5s26.2,8.8,40.9,8.8c17,0,32.7-3.9,47.2-11.7s27.4-18.8,38.2-32.9l87.3,71.3
			c-21.9,27-47.6,47.8-77.5,62.5C1744,999,1712.4,1006.3,1678.4,1006.3z"/>
		<path class="st1" d="M2137.7,993.7l-71.3-127.8h-69.3l0.6,127.8h-113V580.8h205.4c9.8,0,19.8,1.8,30,5.5s20,8.8,29.6,14.9
			c9.6,6.1,18.4,13.3,26.4,21.1c8.2,7.8,14.9,15.7,20.6,23.9c6.9,10.2,12.5,22.3,16.1,36c3.7,13.7,5.5,26.8,5.5,39
			c0,20.6-4.7,39.7-14.3,57.4c-9.6,17.8-22.7,32.7-39.7,44.8l96.1,170.3H2137.7z M2057.8,672.8h-64v88.9h64c6.3,0,12.3-1.2,18-3.5
			c5.7-2.2,10.6-5.5,14.7-9.6c4.3-4.1,7.6-8.8,10-14.1c2.5-5.3,3.7-11,3.7-17.4c0-6.3-1.2-12.3-3.7-17.4c-2.5-5.3-5.7-10-10-14.1
			s-9.2-7.2-14.7-9.6C2070.3,673.8,2064.1,672.8,2057.8,672.8z"/>
		<path class="st1" d="M2474.2,1006.3c-30.3,0-58.7-5.7-85-17c-26.4-11.4-49.5-26.8-69.3-46.6c-19.8-19.6-35.4-42.9-46.8-69.5
			s-17.2-55-17.2-85.2c0-30.3,5.7-58.5,17.2-85.2c11.4-26.6,27-49.7,46.8-69.5c19.6-19.6,42.7-35.4,69.3-46.8
			c26.4-11.4,54.8-17.4,85-17.4c29.8,0,58.3,5.7,84.8,17.4c26.6,11.4,49.7,27.2,69.5,46.8c19.6,19.6,35.4,42.9,46.8,69.5
			s17.2,55,17.2,85.2c0,30.3-5.7,58.5-17.2,85.2c-11.4,26.6-27,49.7-46.8,69.5c-19.8,19.6-42.9,35.2-69.5,46.6
			C2532.4,1000.7,2504.2,1006.3,2474.2,1006.3z M2474.2,674.8c-15.5,0-29.8,3.1-43.1,9.4c-13.3,6.1-24.5,14.5-34.1,24.7
			s-17,22.3-22.5,36s-8.2,28.2-8.2,43.3c0,14.9,2.7,29.2,8.2,43.1c5.5,13.9,12.9,26,22.5,36.2s20.8,18.6,34.1,24.7
			c13.3,6.1,27.6,9.4,43.1,9.4s29.8-3.1,43.1-9.4c13.3-6.1,24.5-14.5,34.1-24.7s17-22.3,22.5-36.2s8.2-28.2,8.2-43.1
			c0-15.3-2.7-29.6-8.2-43.3s-12.9-25.6-22.5-36c-9.6-10.2-20.8-18.6-34.1-24.7C2504,677.8,2489.7,674.8,2474.2,674.8z"/>
		<path class="st1" d="M2987.2,993l-142-220.3V993h-109.4V580.5h108.9l142.7,222.4V580.5h110V993H2987.2z"/>
		<path class="st1" d="M3355.5,1006.3c-30.3,0-58.7-5.7-85-17c-26.4-11.4-49.5-26.8-69.3-46.6c-19.8-19.6-35.4-42.9-46.8-69.5
			s-17.2-55-17.2-85.2c0-30.3,5.7-58.5,17.2-85.2c11.4-26.6,27-49.7,46.8-69.5c19.8-19.6,42.7-35.4,69.3-46.8
			c26.4-11.4,54.8-17.4,85-17.4c29.8,0,58.3,5.7,84.8,17.4c26.6,11.4,49.7,27.2,69.5,46.8c19.6,19.6,35.4,42.9,46.8,69.5
			s17.2,55,17.2,85.2c0,30.3-5.7,58.5-17.2,85.2c-11.4,26.6-27,49.7-46.8,69.5c-19.8,19.6-42.9,35.2-69.5,46.6
			C3413.8,1000.7,3385.6,1006.3,3355.5,1006.3z M3355.5,674.8c-15.5,0-29.8,3.1-43.1,9.4c-13.3,6.1-24.5,14.5-34.1,24.7
			s-17,22.3-22.5,36s-8.2,28.2-8.2,43.3c0,14.9,2.7,29.2,8.2,43.1c5.5,13.9,12.9,26,22.5,36.2s20.8,18.6,34.1,24.7
			c13.3,6.1,27.6,9.4,43.1,9.4s29.8-3.1,43.1-9.4c13.3-6.1,24.5-14.5,34.1-24.7s17-22.3,22.5-36.2s8.2-28.2,8.2-43.1
			c0-15.3-2.7-29.6-8.2-43.3s-12.9-25.6-22.5-36c-9.6-10.2-20.8-18.6-34.1-24.7C3385.4,677.8,3371.1,674.8,3355.5,674.8z"/>
		<path class="st1" d="M3811.6,993.7h-183.3V580.8h183.3c28.6,0,55.4,5.3,80.3,16.1c24.9,10.8,46.8,25.6,65.6,44.2
			c18.6,18.6,33.3,40.5,44.2,65.8c10.8,25.1,16.1,51.9,16.1,80.3c0,28.4-5.3,55.2-16.1,80.3s-25.6,47-44.2,65.8
			c-18.6,18.6-40.5,33.3-65.6,44.2C3867,988.2,3840.2,993.7,3811.6,993.7z M3798.9,681.2h-63V893h63c14.7,0,28.6-2.7,41.5-8.2
			s24.1-13.1,33.5-22.7c9.6-9.6,17-20.8,22.5-33.7s8.2-26.8,8.2-41.3s-2.7-28.2-8.2-41.3c-5.5-12.9-12.9-24.1-22.5-33.7
			c-9.6-9.6-20.6-17.2-33.5-22.7C3827.5,684,3813.8,681.2,3798.9,681.2z"/>
		<polygon class="st1" points="4401.9,581.2 4348.9,681.2 4348.1,682.8 4298.5,776.2 4236.9,652.8 4272.9,581.2 		"/>
		<polygon class="st1" points="4262.9,843.5 4258.6,851.7 4205.5,959.5 4205.5,959.5 4188.7,993.7 4072,993.7 4141.7,851.8 
			4141.9,851.7 4074.2,723.8 4073.2,722 3999,581.2 4127.6,581.2 4200.5,724.8 4201.2,723.5 		"/>
		<polygon class="st1" points="4074.2,723.8 4141.9,851.7 4141.7,851.8 		"/>
		<polygon class="st1" points="4127.6,580.5 4201.2,723.5 4200.5,724.8 4127.6,581.2 3999,581.2 3998.6,580.5 		"/>
	</g>
	<g id="Capa_2_1_">
		<g class="st2">
			<path class="st3" d="M1050.9,989.8c19,0,30.7,2.4,47.4,11.6c0,0,0,28.4,0,50.1c-10.8-9.1-22.7-16.1-45-16.1
				c-30.5,0-47.4,22.9-47.4,54.1c0,29.6,21.3,49.3,49.7,49.3c17.4,0,30.3-7,42.2-15.2c0,0,0,39.2,0,48.4
				c-14.8,6.7-26.5,12.3-45.3,12.3c-51.8,0-94-38.5-94-95.3C958.5,1030,998.1,989.8,1050.9,989.8z"/>
			<path class="st3" d="M1178.5,1114.4v65h-46.9V995.2c0,0,61.9,0,71.5,0c31.9,0,61.4,18.5,61.4,57.8c0,25.3-10.8,42.4-31,50.3
				c4.7,7,48.1,76.3,48.1,76.3h-56.1c0,0-32.6-56.6-37.8-65h-9.2V1114.4z M1177.6,1078.1h15c12.9,0,24.2-5.5,24.2-23.1
				c0-15.6-8.2-23.1-23.7-23.1h-15.5V1078.1z"/>
			<path class="st3" d="M1392.2,988.3c56.3,0,99,42.6,99,97c0,59.7-44.1,100.8-99.2,100.8c-58.2,0-99-42.4-99-99.1
				C1292.9,1028.1,1337.5,988.3,1392.2,988.3z M1340.3,1087.8c0,31.3,20.9,53.4,51.4,53.4s52.1-22.6,52.1-54.9
				c0-29.6-22-52.7-51.8-52.7C1361.9,1033.6,1340.3,1056.5,1340.3,1087.8z"/>
			<path class="st3" d="M1568.5,1179.4h-46.9V995.2h46.9l84,109.3V995.2h45.5v184.3h-46.9l-82.6-110V1179.4z"/>
			<path class="st3" d="M1827.7,988.3c56.3,0,99,42.6,99,97c0,59.7-44.1,100.8-99.2,100.8c-58.2,0-99-42.4-99-99.1
				C1728.5,1028.1,1773,988.3,1827.7,988.3z M1775.8,1087.8c0,31.3,20.9,53.4,51.4,53.4s52.1-22.6,52.1-54.9
				c0-29.6-22-52.7-51.8-52.7C1797.4,1033.6,1775.8,1056.5,1775.8,1087.8z"/>
			<path class="st3" d="M1957.1,995c0,0,46.7,0,75,0c48.3,0,85.4,36.8,85.4,90c0,53.9-34.9,94.3-84.9,94.3c-28.1,0-75.5,0-75.5,0
				V995z M2004.8,1138.1h20.6c27.7,0,44.8-22.6,44.8-53.7c0-28.2-18.3-49.1-43.4-49.1h-22L2004.8,1138.1L2004.8,1138.1z"/>
			<path class="st3" d="M2189.8,995l33.8,56.8l33.3-56.8h56.3l-66.6,102.5v81.8h-46v-80.9l-69-103.5L2189.8,995L2189.8,995z"/>
		</g>
		<g class="st2">
			<polygon class="st4" points="2665.5,1244.7 2662.4,1244.7 2662.4,1244.7 			"/>
		</g>
	</g>
	<path class="st3" d="M516,913.2c-0.3,54.4-0.3,108.7-0.1,163.1c0,5.2-1,7.2-6.8,7.1c-25-0.3-50-0.3-75,0c-5,0.1-6.8-0.9-6.8-6.4
		c0.2-55.3,0.2-110.6,0-165.9c0-5.4,1.7-7.3,6.8-6.4c6.6,1.2,8.5-1.4,8.4-8.2c-0.3-62.7-0.1-125.4-0.1-188.1c0-8.3,0-8.3,7.8-5.2
		c14.4,5.8,28.6,12,43.1,17.4c5.6,2.1,7,5.1,7,10.7c-0.2,27.4-0.1,55-0.1,82.5c0,28,0.1,56-0.1,84c-0.1,5.6,1.7,7.6,7,6.7
		C514,903.5,516.1,906,516,913.2z"/>
	<path class="st3" d="M691.6,758.5c-119.8-45.7-239.8-91.4-359.7-136.9c-4.4-1.7-5.9-3.9-5.8-8.6c0.2-29.6,0.3-59.2,0-88.8
		c-0.1-5.1,1.8-7.2,6.3-8.9c119.8-45.5,239.7-91.2,359.5-137c5.4-2,6.4-1.2,6.4,4.5c-0.3,28-0.3,56,0,83.9c0.1,5.1-1.7,7-6.3,8.7
		c-81.6,29.7-163.2,59.6-244.7,89.6c-2.3,0.9-4.9,1.2-7.5,4c31.2,11.4,61.8,22.6,92.4,33.7c53.4,19.5,106.8,39,160.3,58.3
		c4.5,1.6,5.9,3.7,5.8,8.5c-0.2,28.2-0.3,56.4,0,84.6C698.2,760.3,696.7,760.5,691.6,758.5z"/>
	<path class="st3" d="M1061.5,704.5c-0.3,33.3-0.2,66.6-0.2,99.9c0,33.1-0.1,66.1,0.1,99.2c0,4.7-1.4,6.8-5.8,8.6
		c-98.1,39.1-196.2,78.3-294.2,117.6c-3.8,1.5-6.8,1.3-10.5-0.1c-63-24.1-126-48.2-189.1-72.1c-4.5-1.7-6.4-3.6-6.4-8.7
		c0.3-27,0.3-54.1,0-81.2c-0.1-6.4,1.8-6.6,7-4.5c62,23.8,124.1,47.3,186,71.1c5.1,2,9.4,2,14.5-0.1
		c67.8-27.3,135.6-54.4,203.5-81.4c5.1-2,6.8-4.5,6.8-10c-0.3-35.1-0.1-70.3-0.2-105.5c0-4.5,0.9-7,5.6-8.7
		c25.4-9.3,50.7-19,75.9-28.9C1060,697.7,1061.5,698.5,1061.5,704.5z"/>
	<path class="st3" d="M1166.1,613.7c0,4.5-1.6,6.4-5.6,7.9C1040.3,667.3,920.1,713,800,758.9c-4.6,1.8-6,1.2-6-4
		c0.2-28.6,0.3-57.4-0.1-86c-0.1-5.3,2.8-6.4,6.7-7.9c81.3-29.6,162.5-59.2,243.7-88.9c2.5-1,5.4-1.4,7.5-3.5
		c-1.3-2.4-3.9-2.4-5.9-3.2c-81.8-30-163.6-60-245.5-89.8c-5-1.8-6.5-4-6.4-9.3c0.3-27.8,0.2-55.6,0.1-83.3c0-5,0.2-7,6.2-4.7
		c120.3,46,240.6,91.8,360.9,137.5c4.1,1.6,5,3.7,5,7.7C1165.9,553.5,1165.9,583.5,1166.1,613.7z"/>
	<g id="Capa_1_1_">
		<g class="st2">
			<path class="st5" d="M1166.1,613.7c0,4.5-1.6,6.4-5.6,7.9C1040.3,667.3,920.1,713,800,758.9c-4.6,1.8-6,1.2-6-4
				c0.2-28.6,0.3-57.4-0.1-86c-0.1-5.3,2.8-6.4,6.7-7.9c81.3-29.6,162.5-59.2,243.7-88.9c2.5-1,5.4-1.4,7.5-3.5
				c-1.3-2.4-3.9-2.4-5.9-3.2c-81.8-30-163.6-60-245.5-89.8c-5-1.8-6.5-4-6.4-9.3c0.3-27.8,0.2-55.6,0.1-83.3c0-5,0.2-7,6.2-4.7
				c120.3,46,240.6,91.8,360.9,137.5c4.1,1.6,5,3.7,5,7.7C1165.9,553.5,1165.9,583.5,1166.1,613.7z"/>
			<path class="st5" d="M439.6,569c31.2,11.4,61.8,22.6,92.4,33.7c53.4,19.5,106.8,39,160.3,58.3c4.5,1.6,5.9,3.7,5.8,8.5
				c-0.2,28.2-0.3,56.4,0,84.6c0.1,6-1.5,6.4-6.6,4.4c-119.8-45.7-239.8-91.4-359.7-136.9c-4.4-1.7-5.9-3.9-5.8-8.6
				c0.2-29.6,0.3-59.2,0-88.8c-0.1-5.1,1.8-7.2,6.3-8.9c119.8-45.5,239.7-91.2,359.5-137c5.4-2,6.4-1.2,6.4,4.5
				c-0.3,28-0.3,56,0,83.9c0.1,5.1-1.7,7-6.3,8.7c-81.6,29.7-163.2,59.6-244.7,89.6C444.9,566,442.2,566.2,439.6,569z"/>
			<path class="st5" d="M1061.4,903.7c0,4.7-1.4,6.8-5.8,8.6c-98.1,39.1-196.2,78.3-294.2,117.6c-3.8,1.5-6.8,1.3-10.5-0.1
				c-63-24.1-126-48.2-189.1-72.1c-4.5-1.7-6.4-3.6-6.4-8.7c0.3-27,0.3-54.1,0-81.2c-0.1-6.4,1.8-6.6,7-4.5
				c62,23.8,124.1,47.3,186,71.1c5.1,2,9.4,2,14.5-0.1c67.8-27.3,135.6-54.4,203.5-81.4c5.1-2,6.8-4.5,6.8-10
				c-0.3-35.1-0.1-70.3-0.2-105.5c0-4.5,0.9-7,5.6-8.7c25.4-9.3,50.7-19,75.9-28.9c5.5-2.2,7-1.4,7,4.7c-0.3,33.3-0.2,66.6-0.2,99.9
				C1061.3,837.5,1061.1,870.5,1061.4,903.7z"/>
			<path class="st5" d="M515.9,1076.3c0,5.2-1,7.2-6.8,7.1c-25-0.3-50-0.3-75,0c-5,0.1-6.8-0.9-6.8-6.4c0.2-55.3,0.2-110.6,0-165.9
				c0-5.4,1.7-7.3,6.8-6.4c6.6,1.2,8.5-1.4,8.4-8.2c-0.3-62.7-0.1-125.4-0.1-188.1c0-8.3,0-8.3,7.8-5.2c14.4,5.8,28.6,12,43.1,17.4
				c5.6,2.1,7,5.1,7,10.7c-0.2,27.4-0.1,55-0.1,82.5c0,28,0.1,56-0.1,84c-0.1,5.6,1.7,7.6,7,6.7c6.9-1.2,8.9,1.3,8.9,8.5
				C515.6,967.5,515.7,1022,515.9,1076.3z"/>
		</g>
	</g>
</g>
<g id="Capa_2">
	<circle class="st6" cx="748.3" cy="748.3" r="738.2"/>
	<path class="st7" d="M746,7.8C337,7.8,5.5,339.4,5.5,748.3S337,1488.9,746,1488.9s740.5-331.5,740.5-740.5S1155,7.8,746,7.8z
		 M213.5,464.2c-0.1-6.5,2.3-9.1,8-11.3c151.9-57.7,303.9-115.6,455.8-173.7c6.8-2.5,8.1-1.5,8.1,5.7c-0.4,35.5-0.4,71,0,106.4
		c0.1,6.5-2.2,8.9-8,11C574,440,470.5,477.9,367.2,516c-2.9,1.1-6.2,1.5-9.5,5.1c39.5,14.5,78.3,28.6,117.1,42.7
		c67.7,24.7,135.4,49.4,203.2,73.9c5.7,2,7.5,4.7,7.4,10.8c-0.3,35.8-0.4,71.5,0,107.3c0.1,7.6-1.9,8.1-8.4,5.6
		c-151.9-57.9-304-115.9-456-173.6c-5.6-2.2-7.5-4.9-7.5-10.9C213.8,539.3,213.9,501.8,213.5,464.2z M454.3,1164.2
		c0,6.6-1.3,9.1-8.6,9c-31.7-0.4-63.4-0.4-95.1,0c-6.3,0.1-8.6-1.1-8.6-8.1c0.3-70.1,0.3-140.2,0-210.3c0-6.8,2.2-9.3,8.6-8.1
		c8.4,1.5,10.8-1.8,10.6-10.4c-0.4-79.5-0.1-159-0.1-238.5c0-10.5,0-10.5,9.9-6.6c18.3,7.4,36.3,15.2,54.6,22.1
		c7.1,2.7,8.9,6.5,8.9,13.6c-0.3,34.7-0.1,69.7-0.1,104.6c0,35.5,0.1,71-0.1,106.5c-0.1,7.1,2.1,9.6,8.9,8.5
		c8.8-1.5,11.3,1.6,11.3,10.8C453.9,1026.2,454,1095.2,454.3,1164.2z M504.4,1002.6c0.4-34.2,0.4-68.6,0-102.9
		c-0.1-8.1,2.3-8.4,8.9-5.7c78.6,30.2,157.3,60,235.8,90.1c6.5,2.5,11.9,2.5,18.4-0.1c86-34.6,171.9-69,258-103.2
		c6.5-2.5,8.6-5.7,8.6-12.7c-0.4-44.5-0.1-89.1-0.3-133.8c0-5.7,1.1-8.9,7.1-11c32.2-11.8,64.3-24.1,96.2-36.6c7-2.8,8.9-1.8,8.9,6
		c-0.5,42.4-0.3,84.6-0.3,126.8c0,42-0.1,83.8,0.1,125.8c0,6-1.8,8.6-7.4,10.9c-124.4,49.6-248.7,99.3-373,149.1
		c-4.8,1.9-8.6,1.6-13.3-0.1c-79.9-30.6-159.7-61.1-239.7-91.4C506.8,1011.5,504.4,1009.1,504.4,1002.6z M1278.6,577.6
		c0,5.7-2,8.1-7.1,10c-152.4,57.9-304.8,115.9-457,174.1c-5.8,2.3-7.6,1.5-7.6-5.1c0.3-36.3,0.4-72.8-0.1-109
		c-0.1-6.7,3.6-8.1,8.5-10c103.1-37.5,206-75,308.9-112.7c3.2-1.3,6.9-1.8,9.5-4.4c-1.6-3-4.9-3-7.5-4.1
		c-103.7-38-207.4-76.1-311.2-113.8c-6.3-2.3-8.2-5.1-8.1-11.8c0.4-35.2,0.3-70.5,0.1-105.6c0-6.3,0.3-8.9,7.9-6
		c152.5,58.3,305,116.4,457.5,174.3c5.2,2,6.3,4.7,6.3,9.8C1278.3,501.4,1278.3,539.4,1278.6,577.6z"/>
	<g>
		<path class="st8" d="M676.9,637.6c-0.3,40.8-0.4,81.5,0,122.3c0.1,8.7-2.2,9.2-9.5,6.4c-173.1-66.1-346.6-132.1-519.8-197.8
			c-6.3-2.5-8.5-5.6-8.5-12.4c0.3-42.8,0.4-85.6,0-128.3c-0.1-7.4,2.6-10.4,9.1-12.9C321.2,349,494.5,283,667.7,216.8
			c7.8-2.9,9.2-1.7,9.2,6.5c-0.4,40.5-0.4,80.9,0,121.2c0.1,7.4-2.5,10.1-9.1,12.6c-117.9,42.9-235.9,86.1-353.6,129.5
			c-3.3,1.3-7.1,1.7-10.8,5.8c45.1,16.5,89.3,32.7,133.5,48.7c77.2,28.2,154.4,56.4,231.7,84.2C675,627.7,677,630.7,676.9,637.6z"/>
		<path class="st8" d="M1201.8,976c0,6.8-2,9.8-8.4,12.4c-141.8,56.5-283.5,113.2-425.2,169.9c-5.5,2.2-9.8,1.9-15.2-0.1
			c-91-34.8-182.1-69.7-273.3-104.2c-6.5-2.5-9.2-5.2-9.2-12.6c0.4-39,0.4-78.2,0-117.4c-0.1-9.2,2.6-9.5,10.1-6.5
			c89.6,34.4,179.3,68.4,268.8,102.7c7.4,2.9,13.6,2.9,21-0.1c98-39.5,196-78.6,294.1-117.6c7.4-2.9,9.8-6.5,9.8-14.4
			c-0.4-50.7-0.1-101.6-0.3-152.5c0-6.5,1.3-10.1,8.1-12.6c36.7-13.4,73.3-27.5,109.7-41.8c8-3.2,10.1-2,10.1,6.8
			c-0.6,48.3-0.3,96.4-0.3,144.5C1201.6,880.4,1201.5,928.1,1201.8,976z"/>
		<path class="st8" d="M413.4,1225.5c0,7.5-1.4,10.4-9.8,10.3c-36.1-0.4-72.3-0.4-108.4,0c-7.2,0.1-9.8-1.3-9.8-9.2
			c0.3-79.9,0.3-159.8,0-239.8c0-7.8,2.5-10.5,9.8-9.2c9.5,1.7,12.3-2,12.1-11.9c-0.4-90.6-0.1-181.2-0.1-271.8c0-12,0-12,11.3-7.5
			c20.8,8.4,41.3,17.3,62.3,25.1c8.1,3,10.1,7.4,10.1,15.5c-0.3,39.6-0.1,79.5-0.1,119.2c0,40.5,0.1,80.9-0.1,121.4
			c-0.1,8.1,2.5,11,10.1,9.7c10-1.7,12.9,1.9,12.9,12.3C413,1068.3,413.2,1146.9,413.4,1225.5z"/>
		<path class="st8" d="M1353.1,556.9c0,6.5-2.3,9.3-8.1,11.4c-173.7,66-347.4,132.1-521,198.4c-6.6,2.6-8.7,1.7-8.7-5.8
			c0.3-41.3,0.4-83-0.1-124.3c-0.1-7.7,4-9.2,9.7-11.4c117.5-42.8,234.8-85.6,352.2-128.5c3.6-1.4,7.8-2,10.8-5.1
			c-1.9-3.5-5.6-3.5-8.5-4.6c-118.2-43.4-236.4-86.7-354.8-129.8c-7.2-2.6-9.4-5.8-9.2-13.4c0.4-40.2,0.3-80.3,0.1-120.4
			c0-7.2,0.3-10.1,9-6.8c173.9,66.5,347.7,132.7,521.6,198.7c5.9,2.3,7.2,5.3,7.2,11.1C1352.8,470,1352.8,513.4,1353.1,556.9z"/>
	</g>
</g>
</svg>
