<?xml version="1.0" encoding="utf-8"?>
<!-- Generator: Adobe Illustrator 24.1.0, SVG Export Plug-In . SVG Version: 6.00 Build 0)  -->
<svg version="1.1" xmlns="http://www.w3.org/2000/svg" xmlns:xlink="http://www.w3.org/1999/xlink" x="0px" y="0px"
	 viewBox="0 0 1500 1500" style="enable-background:new 0 0 1500 1500;" xml:space="preserve">
<style type="text/css">
	.st0{fill:#1C80D3;}
	.st1{display:none;}
	.st2{display:inline;}
	.st3{fill:none;}
</style>
<g id="Capa_1">
	<g id="Capa_1_1_">
		<g>
			<path class="st0" d="M1201.3,364.1c-1.9-3.6-5.7-3.6-8.7-4.7c-120.7-44.3-241.5-88.6-362.4-132.6c-7.4-2.7-9.6-5.9-9.5-13.7
				c0.4-41,0.3-82,0.1-122.9c0-7.4,0.3-10.4,9.1-7c177.5,67.9,355.1,135.5,532.7,203c6,2.3,7.4,5.4,7.4,11.3
				c-0.2,44.4-0.3,88.8,0,133.2c0,6.7-2.4,9.5-8.3,11.7c-177.4,67.4-354.8,134.9-532.2,202.6c-6.8,2.6-8.8,1.7-8.8-5.9
				c0.3-42.3,0.4-84.7-0.1-127c-0.1-7.8,4.1-9.5,9.9-11.6c120-43.7,239.9-87.4,359.8-131.2C1194,367.8,1198.2,367.3,1201.3,364.1z"
				/>
			<path class="st0" d="M297.7,364.8c46.1,16.8,91.3,33.3,136.4,49.8c78.8,28.8,157.6,57.6,236.6,86.1c6.6,2.4,8.7,5.5,8.6,12.5
				c-0.3,41.6-0.4,83.3,0,124.9c0.1,8.9-2.2,9.4-9.7,6.5c-176.9-67.5-353.9-134.9-531-202.1c-6.5-2.5-8.7-5.8-8.6-12.7
				c0.3-43.7,0.4-87.4,0-131.1c-0.1-7.5,2.6-10.6,9.3-13.1C316.2,218.4,493.1,151,669.9,83.4c8-3,9.5-1.7,9.4,6.6
				c-0.4,41.3-0.4,82.6,0,123.9c0.1,7.5-2.5,10.4-9.3,12.8c-120.5,43.9-240.9,88-361.2,132.2C305.4,360.2,301.5,360.6,297.7,364.8z"
				/>
			<path class="st0" d="M1215.3,712.3c0,48.8-0.2,97.6,0.2,146.4c0,6.9-2.1,10.1-8.5,12.7C1062.2,929.1,917.4,987,772.7,1045
				c-5.6,2.2-10.1,1.9-15.5-0.1c-93-35.6-186-71.2-279.2-106.4c-6.6-2.5-9.5-5.3-9.4-12.9c0.4-39.9,0.5-79.9,0-119.8
				c-0.1-9.5,2.7-9.7,10.4-6.7c91.5,35.1,183.1,69.8,274.5,104.9c7.5,2.9,13.8,2.9,21.4-0.2c100-40.3,200.2-80.3,300.4-120.1
				c7.6-3,10.1-6.6,10-14.8c-0.4-51.9-0.1-103.8-0.3-155.7c0-6.6,1.4-10.3,8.3-12.8c37.5-13.8,74.8-28,112-42.6
				c8.2-3.2,10.4-2,10.3,7C1215.1,614,1215.3,663.1,1215.3,712.3z"/>
			<path class="st0" d="M387.1,726.3c0,41.3,0.2,82.6-0.2,124c-0.1,8.3,2.5,11.2,10.4,9.9c10.2-1.7,13.2,1.9,13.1,12.6
				c-0.5,80.3-0.4,160.5-0.1,240.8c0,7.7-1.5,10.6-10,10.5c-36.9-0.5-73.8-0.4-110.7,0c-7.4,0.1-10-1.4-10-9.5
				c0.3-81.6,0.3-163.2,0-244.9c0-7.9,2.5-10.7,10-9.4c9.8,1.7,12.5-2.1,12.4-12.1c-0.4-92.5-0.2-185.1-0.2-277.6
				c0-12.3,0-12.3,11.5-7.6c21.2,8.6,42.2,17.7,63.6,25.7c8.3,3.1,10.4,7.5,10.3,15.8C386.9,645,387.1,685.7,387.1,726.3z"/>
		</g>
	</g>
	<g>
		<path class="st0" d="M142.6,1414.5c-14.8,0-28.7-2.8-41.5-8.5c-12.8-5.6-24-13.4-33.6-23.2c-9.6-9.8-17.1-21.2-22.6-34.1
			c-5.5-12.9-8.3-26.7-8.3-41.3c0-14.6,2.8-28.3,8.3-41.3c5.5-12.9,13.1-24.3,22.6-34.1c9.6-9.8,20.8-17.5,33.6-23.2
			c12.8-5.6,26.7-8.5,41.5-8.5c13.4,0,26.4,2.5,38.8,7.4c12.4,4.9,23.9,12.1,34.4,21.5l-41.4,36.4c-10-7.1-20.5-10.7-31.5-10.7
			c-7.2,0-14,1.4-20.2,4.2c-6.2,2.8-11.5,6.6-16,11.5c-4.5,4.9-8,10.5-10.6,16.8c-2.6,6.3-3.9,13-3.9,19.9c0,7.1,1.3,13.8,3.9,20.2
			c2.6,6.3,6.1,11.9,10.6,16.7c4.5,4.8,9.8,8.6,15.9,11.5c6.1,2.9,12.8,4.3,20,4.3c8.3,0,16-1.9,23.1-5.7
			c7.1-3.8,13.4-9.2,18.7-16.1l42.7,34.9c-10.7,13.2-23.3,23.4-37.9,30.6C174.7,1410.9,159.2,1414.5,142.6,1414.5z"/>
		<path class="st0" d="M367.3,1408.3l-34.9-62.5h-33.9l0.3,62.5h-55.3v-202H344c4.8,0,9.7,0.9,14.7,2.7c5,1.8,9.8,4.3,14.5,7.3
			c4.7,3,9,6.5,12.9,10.3c4,3.8,7.3,7.7,10.1,11.7c3.4,5,6.1,10.9,7.9,17.6c1.8,6.7,2.7,13.1,2.7,19.1c0,10.1-2.3,19.4-7,28.1
			c-4.7,8.7-11.1,16-19.4,21.9l47,83.3H367.3z M328.2,1251.3h-31.3v43.5h31.3c3.1,0,6-0.6,8.8-1.7c2.8-1.1,5.2-2.7,7.2-4.7
			c2.1-2,3.7-4.3,4.9-6.9c1.2-2.6,1.8-5.4,1.8-8.5c0-3.1-0.6-6-1.8-8.5c-1.2-2.6-2.8-4.9-4.9-6.9c-2.1-2-4.5-3.5-7.2-4.7
			C334.3,1251.8,331.3,1251.3,328.2,1251.3z"/>
		<path class="st0" d="M531.9,1414.5c-14.8,0-28.7-2.8-41.6-8.3c-12.9-5.6-24.2-13.1-33.9-22.8c-9.7-9.6-17.3-21-22.9-34
			c-5.6-13-8.4-26.9-8.4-41.7c0-14.8,2.8-28.6,8.4-41.7c5.6-13,13.2-24.3,22.9-34c9.6-9.6,20.9-17.3,33.9-22.9
			c12.9-5.6,26.8-8.5,41.6-8.5c14.6,0,28.5,2.8,41.5,8.5c13,5.6,24.3,13.3,34,22.9c9.6,9.6,17.3,21,22.9,34
			c5.6,13,8.4,26.9,8.4,41.7c0,14.8-2.8,28.6-8.4,41.7c-5.6,13-13.2,24.3-22.9,34c-9.7,9.6-21,17.2-34,22.8
			C560.4,1411.7,546.6,1414.5,531.9,1414.5z M531.9,1252.3c-7.6,0-14.6,1.5-21.1,4.6c-6.5,3-12,7.1-16.7,12.1
			c-4.7,5-8.3,10.9-11,17.6c-2.7,6.7-4,13.8-4,21.2c0,7.3,1.3,14.3,4,21.1c2.7,6.8,6.3,12.7,11,17.7c4.7,5,10.2,9.1,16.7,12.1
			c6.5,3,13.5,4.6,21.1,4.6c7.6,0,14.6-1.5,21.1-4.6c6.5-3,12-7.1,16.7-12.1c4.7-5,8.3-10.9,11-17.7c2.7-6.8,4-13.8,4-21.1
			c0-7.5-1.3-14.5-4-21.2c-2.7-6.7-6.3-12.5-11-17.6c-4.7-5-10.2-9.1-16.7-12.1C546.5,1253.8,539.5,1252.3,531.9,1252.3z"/>
		<path class="st0" d="M782.9,1408l-69.5-107.8V1408h-53.5v-201.8h53.3l69.8,108.8v-108.8h53.8V1408H782.9z"/>
		<path class="st0" d="M963.1,1414.5c-14.8,0-28.7-2.8-41.6-8.3c-12.9-5.6-24.2-13.1-33.9-22.8c-9.7-9.6-17.3-21-22.9-34
			c-5.6-13-8.4-26.9-8.4-41.7c0-14.8,2.8-28.6,8.4-41.7c5.6-13,13.2-24.3,22.9-34c9.7-9.6,20.9-17.3,33.9-22.9
			c12.9-5.6,26.8-8.5,41.6-8.5c14.6,0,28.5,2.8,41.5,8.5c13,5.6,24.3,13.3,34,22.9c9.6,9.6,17.3,21,22.9,34
			c5.6,13,8.4,26.9,8.4,41.7c0,14.8-2.8,28.6-8.4,41.7c-5.6,13-13.2,24.3-22.9,34c-9.7,9.6-21,17.2-34,22.8
			C991.6,1411.7,977.8,1414.5,963.1,1414.5z M963.1,1252.3c-7.6,0-14.6,1.5-21.1,4.6c-6.5,3-12,7.1-16.7,12.1
			c-4.7,5-8.3,10.9-11,17.6c-2.7,6.7-4,13.8-4,21.2c0,7.3,1.3,14.3,4,21.1c2.7,6.8,6.3,12.7,11,17.7c4.7,5,10.2,9.1,16.7,12.1
			c6.5,3,13.5,4.6,21.1,4.6c7.6,0,14.6-1.5,21.1-4.6c6.5-3,12-7.1,16.7-12.1c4.7-5,8.3-10.9,11-17.7c2.7-6.8,4-13.8,4-21.1
			c0-7.5-1.3-14.5-4-21.2c-2.7-6.7-6.3-12.5-11-17.6c-4.7-5-10.2-9.1-16.7-12.1C977.7,1253.8,970.7,1252.3,963.1,1252.3z"/>
		<path class="st0" d="M1186.2,1408.3h-89.7v-202h89.7c14,0,27.1,2.6,39.3,7.9c12.2,5.3,22.9,12.5,32.1,21.6
			c9.1,9.1,16.3,19.8,21.6,32.2c5.3,12.3,7.9,25.4,7.9,39.3c0,13.9-2.6,27-7.9,39.3c-5.3,12.3-12.5,23-21.6,32.2
			c-9.1,9.1-19.8,16.3-32.1,21.6C1213.3,1405.6,1200.2,1408.3,1186.2,1408.3z M1180,1255.4h-30.8v103.6h30.8c7.2,0,14-1.3,20.3-4
			c6.3-2.7,11.8-6.4,16.4-11.1c4.7-4.7,8.3-10.2,11-16.5c2.7-6.3,4-13.1,4-20.2c0-7.1-1.3-13.8-4-20.2c-2.7-6.3-6.3-11.8-11-16.5
			c-4.7-4.7-10.1-8.4-16.4-11.1C1194,1256.8,1187.3,1255.4,1180,1255.4z"/>
		<polygon class="st0" points="1475,1206.5 1449.1,1255.4 1448.7,1256.2 1424.4,1301.9 1394.3,1241.5 1411.9,1206.5 		"/>
		<polygon class="st0" points="1407,1334.8 1404.9,1338.8 1378.9,1391.6 1378.9,1391.6 1370.7,1408.3 1313.6,1408.3 1347.7,1338.9 
			1347.8,1338.8 1314.7,1276.3 1314.2,1275.4 1277.9,1206.5 1340.8,1206.5 1376.5,1276.8 1376.8,1276.1 		"/>
		<polygon class="st0" points="1314.7,1276.3 1347.8,1338.8 1347.7,1338.9 		"/>
		<polygon class="st0" points="1340.8,1206.2 1376.8,1276.1 1376.5,1276.8 1340.8,1206.5 1277.9,1206.5 1277.7,1206.2 		"/>
	</g>
</g>
<g id="Capa_2" class="st1">
	<g class="st2">
		<path class="st0" d="M168.6,1206.6c19,0,30.7,2.4,47.4,11.6c0,0,0,28.4,0,50.1c-10.8-9.1-22.7-16.1-45-16.1
			c-30.5,0-47.4,22.9-47.4,54.1c0,29.6,21.3,49.3,49.7,49.3c17.4,0,30.3-7,42.2-15.2c0,0,0,39.2,0,48.4
			c-14.8,6.7-26.5,12.3-45.3,12.3c-51.8,0-94-38.5-94-95.3C76.2,1246.8,115.8,1206.6,168.6,1206.6z"/>
		<path class="st0" d="M296.2,1331.3v65h-46.9v-184.3c0,0,61.9,0,71.5,0c31.9,0,61.4,18.5,61.4,57.8c0,25.3-10.8,42.4-31,50.3
			c4.7,7,48.1,76.3,48.1,76.3h-56.1c0,0-32.6-56.6-37.8-65H296.2z M295.3,1294.9h15c12.9,0,24.2-5.5,24.2-23.1
			c0-15.6-8.2-23.1-23.7-23.1h-15.5V1294.9z"/>
		<path class="st0" d="M509.9,1205.2c56.3,0,99,42.6,99,97c0,59.7-44.1,100.8-99.2,100.8c-58.2,0-99-42.4-99-99.1
			C410.6,1244.9,455.2,1205.2,509.9,1205.2z M458,1304.6c0,31.3,20.9,53.4,51.4,53.4c30.5,0,52.1-22.6,52.1-54.9
			c0-29.6-22-52.7-51.8-52.7C479.6,1250.4,458,1273.3,458,1304.6z"/>
		<path class="st0" d="M686.2,1396.3h-46.9v-184.3h46.9l84,109.3v-109.3h45.5v184.3h-46.9l-82.6-110V1396.3z"/>
		<path class="st0" d="M945.4,1205.2c56.3,0,99,42.6,99,97c0,59.7-44.1,100.8-99.2,100.8c-58.2,0-99-42.4-99-99.1
			C846.2,1244.9,890.7,1205.2,945.4,1205.2z M893.5,1304.6c0,31.3,20.9,53.4,51.4,53.4c30.5,0,52.1-22.6,52.1-54.9
			c0-29.6-22-52.7-51.8-52.7C915.1,1250.4,893.5,1273.3,893.5,1304.6z"/>
		<path class="st0" d="M1074.8,1211.9c0,0,46.7,0,75,0c48.3,0,85.4,36.8,85.4,90c0,53.9-34.9,94.3-84.9,94.3c-28.1,0-75.5,0-75.5,0
			V1211.9z M1122.5,1354.9h20.6c27.7,0,44.8-22.6,44.8-53.7c0-28.2-18.3-49.1-43.4-49.1h-22V1354.9z"/>
		<path class="st0" d="M1307.5,1211.9l33.8,56.8l33.3-56.8h56.3l-66.6,102.5v81.8h-46v-80.9l-69-103.5H1307.5z"/>
	</g>
	<g class="st2">
		<polygon class="st3" points="1783.2,1461.5 1780.1,1461.5 1780.1,1461.5 1783.2,1461.5 		"/>
	</g>
</g>
</svg>
