<?xml version="1.0" encoding="utf-8"?>
<!-- Generator: Adobe Illustrator 24.1.0, SVG Export Plug-In . SVG Version: 6.00 Build 0)  -->
<svg version="1.1" id="Capa_1" xmlns="http://www.w3.org/2000/svg" xmlns:xlink="http://www.w3.org/1999/xlink" x="0px" y="0px"
	 viewBox="0 0 512 512" style="enable-background:new 0 0 512 512;" xml:space="preserve">
<style type="text/css">
	.st0{fill:#AFAFAF;}
</style>
<g>
	<g>
		<g>
			<path class="st0" d="M433.2,244.9V113.3c0-2-0.5-3.8-1.3-5.4c0.5-1.3,1.3-2.5,1.3-4c0-5.6-3.7-10.6-9.1-12.1L247.5,41.3
				c-2.3-0.6-4.7-0.6-6.9,0L64,91.7c-5.4,1.6-9.1,6.5-9.1,12.1s3.7,10.6,9.1,12.1l66.5,19v14.9c0,14.3,8,27.5,20.3,33.6
				c56.5,27.8,129.8,27.8,186.4,0c12.3-6.1,20.3-19.2,20.3-33.6V135l50.4-14.4v124.3c-14.6,5.2-25.2,19.1-25.2,35.5v25.2
				c0,7,5.6,12.6,12.6,12.6h50.4c7,0,12.6-5.6,12.6-12.6v-25.2C458.4,264,447.8,250.1,433.2,244.9z"/>
		</g>
	</g>
	<g>
		<g>
			<path class="st0" d="M347.1,207.8c-31.7,15.6-67.8,23.8-104.3,23.8s-72.6-8.2-104.3-23.8c-3.1-1.5-5.7-3.8-8.4-5.8
				c2.7,45.4,27.1,83.9,61.6,103.6c0,0,17.7,8.4,23.2,9.9l0,0c9,2.6,18.2,4.4,27.9,4.4c8.9,0,21.5-1.8,34.1-6.4
				c5.8-2.1,17-7.8,17-7.8c34.5-19.7,59-58.2,61.7-103.6C352.7,204,350.2,206.3,347.1,207.8z"/>
		</g>
	</g>
	<g>
		<g>
			<path class="st0" d="M242.8,345.1c-10.2,0-19.9-1.6-29.5-3.9l29.5,44.2l29.3-44.2C262.6,343.6,252.9,345.1,242.8,345.1z"/>
		</g>
	</g>
	<g>
		<g>
			<path class="st0" d="M315.3,322.5c-0.2,0.2-0.5,0.3-0.7,0.4L304,338.8c0,0.6-48.3,72.9-48.7,73.4v59h163.9
				c7,0,12.6-5.6,12.6-12.6C431.9,389.7,381.2,333.2,315.3,322.5z M343.6,420.8h-25.2c-7,0-12.6-5.6-12.6-12.6s5.6-12.6,12.6-12.6
				h25.2c7,0,12.6,5.6,12.6,12.6C356.2,415.1,350.6,420.8,343.6,420.8z"/>
		</g>
	</g>
	<g>
		<g>
			<path class="st0" d="M170.6,322.7c-0.2-0.1-0.4-0.2-0.6-0.4c-65.8,10.8-116.4,67.4-116.4,136.2c0,7,5.6,12.6,12.6,12.6h163.9v-59
				C173,326.3,184.7,343.8,170.6,322.7z"/>
		</g>
	</g>
</g>
</svg>
