<?xml version="1.0" encoding="utf-8"?>
<!-- Generator: Adobe Illustrator 24.1.0, SVG Export Plug-In . SVG Version: 6.00 Build 0)  -->
<svg version="1.1" id="Capa_1" xmlns="http://www.w3.org/2000/svg" xmlns:xlink="http://www.w3.org/1999/xlink" x="0px" y="0px"
	 viewBox="0 0 1500 1500" style="enable-background:new 0 0 1500 1500;" xml:space="preserve">
<style type="text/css">
	.st0{display:none;}
	.st1{display:inline;fill:#FFFFFF;stroke:#000000;stroke-miterlimit:10;}
	.st2{display:inline;fill:#232323;stroke:#000000;stroke-miterlimit:10;}
	.st3{display:inline;fill:none;stroke:#000000;stroke-miterlimit:10;}
	.st4{fill:#DDDDDD;}
</style>
<g id="Capa_1_1_" class="st0">
	<path class="st1" d="M1123.6,1168.8l-2.2,2.1c-0.3-3.1-0.7-6.2-1.1-9.5c-3.8-30.4-11.9-69.2-28.9-108.3
		c-18.8-43.4-48.5-87.2-95.3-120.4c-12.8-9.1-26.9-17.4-42.5-24.7c-1.3-0.6-2.6-1.2-3.9-1.8c41.4-40.8,70.4-94.3,80.7-154.1
		c2.7-15.8,4.1-32,4.1-48.5C1034.5,546.3,907.2,419,750,419S465.5,546.3,465.5,703.5c0,13.5,0.9,26.9,2.8,39.9
		c8.9,63.3,38.6,119.8,81.9,162.6c-0.8,0.4-1.6,0.7-2.4,1.1c-16.9,7.8-32.1,16.8-45.9,26.7c-45.8,33-74.9,76.2-93.5,118.9
		c-15.6,35.8-23.7,71.3-28,100.4c-1.3,9-2.2,17.3-2.9,24.9l-5.6-6.4l-93.7-106.2l-37.6-42.6l50.4-59.4l26.9-31.7
		c-16.8-31.7-30.2-65.5-39.7-100.9L155.5,808l1.6-136.7l1-88.4l122.8-16.3c4.1-14.2,8.9-28.1,14.2-41.7
		c7.5-19.1,16.1-37.5,25.9-55.3L285.1,421l-36.3-49.1l155.5-162.8L505,280.8c34.7-20.2,72.1-36.2,111.6-47.4l21.1-121.3h225.2
		l17.4,120.4c39.5,10.9,77.1,26.7,111.9,46.6l105.6-70.5L1253,371.8l-38.7,49.2l-36.4,46.3c9.6,17.4,18.2,35.5,25.7,54.1
		c7.4,18.3,13.6,37.1,18.8,56.4l125.1,24.8C1299.3,316,1050.1,97.8,750,97.8c-334.5,0-605.7,271.2-605.7,605.7
		c0,39.1,3.7,77.3,10.8,114.3c5.4,28.4,12.8,56.1,22.1,83c21.7,63.1,53.6,121.5,93.7,173.2c29.1,37.6,62.5,71.6,99.5,101.4
		c2.3,1.9,4.6,3.7,7,5.5c3,2.3,6,4.7,9,6.9c1.4,1,2.8,2.1,4.2,3.1c13.4,9.9,27.3,19.3,41.5,28.1c5.7-22.1,13.9-45.8,25.4-69.2
		c6.5-13.2,14.1-26.3,22.9-39.1c23.7-34.3,56.4-65.7,101.6-88.4c15.3-7.7,32-14.3,50.3-19.7c22.7-6.7,47.8-11.5,75.6-13.9
		c4.3-0.4,8.6-0.7,13-0.9c3.4-0.2,6.8-0.4,10.3-0.5c6.3,0.4,12.6,0.6,19,0.6h0.2c6.3,0,12.6-0.2,18.8-0.6h0.1
		c2.8,0.1,5.6,0.2,8.3,0.4l0,0c4.9,0.3,9.7,0.6,14.4,1c22.9,2,44,5.5,63.4,10.5c22.7,5.7,43,13.3,61.4,22.4
		c46,22.7,79.3,54.5,103.3,89.1c22,31.8,36.3,66.1,45.4,97.9l0,0c1,3.5,1.9,6.9,2.8,10.3c18.8-11.6,36.8-24.2,54.1-37.7
		c1.6-1.3,3.3-2.6,4.9-3.8c28.4-22.7,54.8-47.8,78.7-75.1c11.1-12.7,21.7-25.8,31.7-39.4l-35.8,33.2L1123.6,1168.8z M750,901.4
		c-14.5,0-28.7-1.6-42.3-4.5c-17.9-3.9-34.9-10.2-50.6-18.6l0,0c-50.8-27.1-88.4-75.6-100.7-133.5l0,0c-2.8-13.3-4.3-27.1-4.3-41.3
		c0-93.7,65.2-172.2,152.7-192.7l0,0c14.5-3.4,29.6-5.2,45.2-5.2c17.7,0,34.8,2.3,51,6.6l0,0c84.5,22.5,146.8,99.6,146.8,191.2
		c0,16.3-2,32.1-5.7,47.2l0,0c-13.5,55.3-50.3,101.5-99.4,127.6l0,0c-15.8,8.4-32.9,14.8-51,18.6C778.3,899.8,764.3,901.4,750,901.4
		z"/>
	<path class="st1" d="M1355.7,703.5c0,134.1-43.6,258-117.3,358.3L1168.9,955c21-34.8,37.7-72.5,49.5-112.3l123.9-15l5.3-223.6
		C1352.9,636.4,1355.7,669.6,1355.7,703.5z"/>
	<path class="st1" d="M996,932.6c-12.8-9.1-26.9-17.4-42.5-24.7c-1.3-0.6-2.6-1.2-3.9-1.8c41.4-40.8,70.4-94.3,80.7-154.1
		c2.7-15.8,4.1-32,4.1-48.5C1034.5,546.3,907.2,419,750,419S465.5,546.3,465.5,703.5c0,13.5,0.9,26.9,2.8,39.9
		c8.9,63.3,38.6,119.8,81.9,162.6c-0.8,0.4-1.6,0.7-2.4,1.1c-16.9,7.8-32.1,16.8-45.9,26.7c-45.8,33-74.9,76.2-93.5,118.9
		c8.2,8,16.6,15.7,25.3,23.1c14.8,12.6,30.3,24.3,46.6,35.1c23.7-34.3,56.4-65.7,101.6-88.4c15.3-7.7,32-14.3,50.3-19.7
		c22.7-6.7,47.8-11.5,75.6-13.9c4.3-0.4,8.6-0.7,13-0.9c3.4-0.2,6.8-0.4,10.3-0.5c6.3,0.4,12.6,0.6,19,0.6h0.2
		c6.3,0,12.6-0.2,18.8-0.6h0.1c2.8,0.1,5.6,0.2,8.3,0.4l0,0c4.9,0.3,9.7,0.6,14.4,1c22.9,2,44,5.5,63.4,10.5
		c22.7,5.7,43,13.3,61.4,22.4c46,22.7,79.3,54.5,103.3,89.1c15.6-10.3,30.5-21.5,44.7-33.5c9.2-7.7,18.1-15.8,26.7-24.2
		C1072.5,1009.7,1042.8,965.9,996,932.6z M750,901.4c-14.5,0-28.7-1.6-42.3-4.5c-17.9-3.9-34.9-10.2-50.6-18.6l0,0
		c-50.8-27.1-88.4-75.6-100.7-133.5l0,0c-2.8-13.3-4.3-27.1-4.3-41.3c0-93.7,65.2-172.2,152.7-192.7l0,0c14.5-3.4,29.6-5.2,45.2-5.2
		c17.7,0,34.8,2.3,51,6.6l0,0c84.5,22.5,146.8,99.6,146.8,191.2c0,16.3-2,32.1-5.7,47.2l0,0c-13.5,55.3-50.3,101.5-99.4,127.6l0,0
		c-15.8,8.4-32.9,14.8-51,18.6C778.3,899.8,764.3,901.4,750,901.4z"/>
	<path class="st1" d="M1030.4,752c-17-121-110.1-217.6-229.4-239.8l0,0c-17-3.2-34.5-4.8-52.4-4.8c-14.9,0-29.6,1.1-43.8,3.4l0,0
		c-120.5,18.6-215.9,112.8-236.5,232.6c-2.7,15.8-4.1,32-4.1,48.6c0,51.6,13.8,100,37.8,141.8c3.6,6.3,7.5,12.5,11.6,18.5
		c2.6,3.8,5.3,7.5,8.1,11.2s5.6,7.3,8.6,10.8c1.5,1.8,3,3.5,4.5,5.2s3,3.4,4.6,5.1c3.1,3.4,6.3,6.7,9.6,9.9
		c10.3,10.1,21.3,19.5,33,28c36,26.1,78.5,44,124.5,50.9c7.7,1.2,15.4,2,23.3,2.5c6.3,0.4,12.6,0.6,19,0.6h0.2
		c6.3,0,12.6-0.2,18.8-0.6h0.1c7.7-0.5,15.3-1.3,22.8-2.4c46.7-6.9,89.7-25.1,126.2-51.8c11.2-8.2,21.8-17.3,31.7-27
		c18.6-18.3,34.7-39.2,47.7-62c23.6-41.5,37.2-89.5,37.2-140.7C1033.2,778.4,1032.2,765.1,1030.4,752z M777.4,987.8
		c-9.4,1.4-19,2.1-28.8,2.1c-9.5,0-18.8-0.7-28-2c-4.4-0.6-8.7-1.4-13-2.3c-0.5-0.1-0.9-0.2-1.4-0.3c-17.9-3.9-34.9-10.2-50.6-18.6
		l0,0c-17.6-9.4-33.6-21.3-47.5-35.3c-11-11.1-20.7-23.4-28.9-36.8c-18.2-29.9-28.7-65.1-28.7-102.6c0-16.3,2-32.1,5.7-47.2
		c0.6-2.3,1.2-4.6,1.8-6.9c0.4-1.6,0.9-3.1,1.4-4.7c0.5-1.5,1-3.1,1.5-4.6s1-3,1.6-4.6c0.5-1.5,1.1-3,1.7-4.5
		c2.1-5.2,4.3-10.4,6.8-15.4c0.4-0.7,0.7-1.4,1.1-2.2c1.1-2.1,2.2-4.2,3.4-6.3c1.6-2.8,3.2-5.5,4.9-8.2s3.4-5.3,5.2-8
		c0.9-1.3,1.8-2.6,2.8-3.9c0.5-0.6,0.9-1.3,1.4-1.9c5.7-7.6,11.9-14.8,18.6-21.5c35.8-35.8,85.3-58,139.9-58
		c64,0,121,30.4,157.1,77.6c1.4,1.9,2.9,3.8,4.2,5.7c0.9,1.3,1.8,2.6,2.7,3.9c0.9,1.3,1.8,2.7,2.6,4c6.4,10,12,20.7,16.5,31.9
		c4.4,10.7,7.8,21.9,10.3,33.5c2.8,13.3,4.3,27.1,4.3,41.3c0,37.3-10.3,72.2-28.3,102c-4.3,7.1-8.9,13.8-14,20.3
		c-1.3,1.7-2.7,3.4-4.2,5.1c-2.8,3.4-5.8,6.6-8.8,9.8c-14.4,15-31.2,27.8-49.8,37.6l0,0c-15.4,8.2-32.1,14.4-49.6,18.3
		c-0.5,0.1-0.9,0.2-1.4,0.3C786.2,986.4,781.8,987.1,777.4,987.8L777.4,987.8z"/>
	<path class="st1" d="M707.7,896.8v92c-27.8,2.4-52.9,7.2-75.6,13.9c-18.3,5.4-35,12.1-50.3,19.7c-45.2,22.6-77.9,54.1-101.6,88.4
		c-8.8,12.7-16.4,25.9-22.9,39.1c-11.5,23.4-19.7,47.1-25.4,69.2c-0.8,3-1.5,5.9-2.2,8.8l-53.6-7.6c0,0-0.8-15.3,1.1-39.4
		c0.1-1,0.2-2,0.3-3c0.7-7.6,1.6-15.9,2.9-24.9c4.2-29.1,12.4-64.6,28-100.4c18.6-42.8,47.8-85.9,93.5-118.9
		c13.7-9.9,29-18.9,45.9-26.7c0.8-0.4,1.6-0.7,2.4-1.1c9.3-4.2,19-8,29.3-11.4l0,0c23.2-7.7,49-13.3,77.7-16.4l0,0
		C672.8,886.6,689.8,893,707.7,896.8z"/>
	<path class="st1" d="M1123.4,1220.4l-53,7.5c-0.7-2.9-1.4-5.9-2.2-8.8c-0.9-3.4-1.8-6.9-2.8-10.3l0,0c-9.2-31.8-23.4-66-45.4-97.9
		c-24-34.7-57.2-66.5-103.3-89.1c-18.4-9.1-38.7-16.7-61.4-22.4c-19.4-4.9-40.5-8.5-63.4-10.5v-91.8c18-3.9,35.1-10.2,51-18.6l0,0
		c27.8,3,52.9,8.3,75.4,15.7l0,0c11.1,3.6,21.6,7.7,31.5,12.1c1.3,0.6,2.6,1.2,3.9,1.8c15.5,7.3,29.6,15.6,42.5,24.7
		c46.8,33.2,76.5,77,95.3,120.4c17,39.2,25.1,78,28.9,108.3c0.4,3.3,0.8,6.4,1.1,9.5c0.4,3.6,0.7,7.1,1,10.4
		C1124.2,1205.2,1123.4,1220.4,1123.4,1220.4z"/>
	<path class="st1" d="M632.2,1002.8c-18.3,5.4-35,12.1-50.3,19.7c-45.2,22.6-77.9,54.1-101.6,88.4c-8.8,12.7-16.4,25.9-22.9,39.1
		l-66.9,41.1l-0.9,0.6l-3.3-3.7l-8.8-10c0.7-7.6,1.6-15.9,2.9-24.9c4.2-29.1,12.4-64.6,28-100.4c18.6-42.8,47.8-85.9,93.5-118.9
		c13.7-9.9,29-18.9,45.9-26.7L632.2,1002.8z"/>
	<path class="st1" d="M1121.3,1170.9l-47.8,44.4l-8.2-6.6l0,0c-9.2-31.8-23.4-66-45.4-97.9c-24-34.7-57.2-66.5-103.3-89.1
		c-18.4-9.1-38.7-16.7-61.4-22.4l98.3-91.3c15.5,7.3,29.6,15.6,42.5,24.7c46.8,33.2,76.5,77,95.3,120.4c17,39.2,25.1,78,28.9,108.3
		C1120.7,1164.6,1121,1167.8,1121.3,1170.9z"/>
	<path class="st2" d="M916.6,1021.6c-36.4,26.7-79.5,44.9-126.2,51.8c-7.5,1.1-15.1,1.9-22.8,2.4h-0.1c-6.2,0.4-12.5,0.6-18.8,0.6
		h-0.2c-6.4,0-12.7-0.2-19-0.6c-7.8-0.5-15.6-1.3-23.3-2.5c-46-6.8-88.5-24.7-124.5-50.9c15.3-7.7,32-14.3,50.3-19.7
		c22.7-6.7,47.8-11.5,75.6-13.9c4.3-0.4,8.6-0.7,13-0.9c3.4-0.2,6.8-0.4,10.3-0.5c6.3,0.4,12.6,0.6,19,0.6h0.2
		c6.3,0,12.6-0.2,18.8-0.6h0.1c2.8,0.1,5.6,0.2,8.3,0.4l0,0c4.9,0.3,9.7,0.6,14.4,1c22.9,2,44,5.5,63.4,10.5
		C877.9,1005,898.3,1012.6,916.6,1021.6z"/>
	<path class="st1" d="M1347.6,602.6v1.5c-0.1-0.5-0.2-1-0.3-1.6L1347.6,602.6z"/>
	<path class="st1" d="M1238.6,1062.1l-1,0.9c0.3-0.4,0.5-0.8,0.8-1.1L1238.6,1062.1z"/>
	<path class="st1" d="M750.2,987v1H750c-6.4,0-12.7-0.2-19-0.6c6.2-0.2,12.5-0.4,19-0.4H750.2z"/>
	<path class="st1" d="M769,987.4c-6.2,0.4-12.5,0.6-18.8,0.6H750v-1h0.2C756.6,987,762.8,987.2,769,987.4z"/>
	<path class="st3" d="M418.5,1335.3v8.1c0-0.1,0-0.3,0-0.4v-7.3C418.5,1335.6,418.5,1335.5,418.5,1335.3z"/>
</g>
<g id="Capa_2_1_">
	<g>
		<path class="st4" d="M1241.7,904.9c-12.4,41.9-30,81.6-52.1,118.3l73.2,112.6c-0.3,0.4-0.5,0.8-0.8,1.2l-96.6,89.6
			c-21-106.7-91.3-201.5-195.9-249.7c-2.2-1.1-4.4-2.2-6.6-3.3c-1.4-0.6-2.7-1.3-4.1-1.9c55.2-54.3,89.3-129.8,89.3-213.5
			c0-165.5-134.2-299.6-299.6-299.6S448.7,592.9,448.7,758.3c0,83.5,34.1,158.9,89.2,213.3c-0.8,0.4-1.7,0.7-2.5,1.2
			c-6.1,2.8-12,5.8-17.7,9c-100.3,49.6-167.4,142.7-187.5,247l-118.4-134.1l81.4-95.8c-17.7-33.4-31.8-69-41.8-106.3l-129.2-24
			l2.7-237.2l129.3-17.2c10.4-35.8,24.6-70,42.2-102.2l-76-102.9l163.8-171.4l105.9,75.5c36.6-21.3,76-38.1,117.6-49.9l22.1-127.7
			h237.2l18.3,126.8c41.6,11.5,81.2,28.1,117.8,49.1l111.2-74.2L1277.9,409l-79.1,100.6c20.1,36.3,35.9,75.3,46.9,116.4l131.7,26.1
			c0.1,0.5,0.2,1.1,0.3,1.7l-5.6,235.5L1241.7,904.9z"/>
		<path class="st4" d="M1099,1326.8v11.9c0,14.2-11.6,25.8-25.8,25.8H426.6c-14,0-25.6-11.4-25.8-25.4v-19.9
			c-0.1-15.9,0.9-55,11.9-101.6c0.7-3.1,1.5-6.1,2.3-9.3c6-23.3,14.6-48.2,26.7-72.9c6.8-13.9,14.8-27.7,24.1-41.2
			c25-36.1,59.4-69.2,107-93.1c37.9,27.5,82.7,46.3,131.1,53.6c8.1,1.3,16.2,2.1,24.5,2.6c6.6,0.4,13.3,0.6,20,0.6h0.2
			c6.6,0,13.3-0.2,19.8-0.6h0.1c8.1-0.5,16.1-1.4,24-2.5c49.2-7.3,94.5-26.4,132.9-54.6c48.4,23.9,83.5,57.4,108.8,93.8
			c23.2,33.5,38.2,69.6,47.8,103.1l0,0c1.1,3.7,2,7.3,2.9,10.8c0.8,3.2,1.6,6.2,2.3,9.3C1101.7,1278.6,1099,1326.8,1099,1326.8z"/>
		<path class="st4" d="M958.4,758.3c0,79.8-44.9,149-110.7,184.1l0,0c-16.6,8.8-34.6,15.6-53.7,19.6c-14.2,3.1-29,4.6-44,4.6
			c-15.3,0-30.2-1.7-44.5-4.7c-18.9-4.1-36.8-10.7-53.3-19.6l0,0c-65.8-35.1-110.6-104.4-110.6-184.1
			c0-115.1,93.3-208.4,208.4-208.4S958.4,643.2,958.4,758.3z"/>
	</g>
</g>
</svg>
